<svg width="25" height="25" viewBox="0 0 25 25" fill="none" xmlns="http://www.w3.org/2000/svg">
<path d="M11.9869 0.0630155C10.7906 0.351164 10.0679 1.56236 10.3755 2.75403C10.483 3.16427 10.6685 3.47196 10.9859 3.77476C11.2984 4.07267 11.5425 4.21431 11.9478 4.31687C12.9488 4.5806 14.0279 4.07756 14.4673 3.14474C15.2584 1.48422 13.7593 -0.366765 11.9869 0.0630155Z" fill="#005EE6"/>
<path d="M6.48943 2.0946C6.39178 2.14833 6.25506 2.25089 6.19158 2.32903C6.12322 2.40717 5.42498 4.08722 4.5949 6.1531C3.00799 10.0993 3.01775 10.0797 3.19842 10.4656C3.24725 10.5632 3.35467 10.7 3.43767 10.7586C3.67205 10.9393 5.5324 11.667 5.75213 11.667C5.99627 11.667 6.34783 11.4863 6.47478 11.2958C6.5285 11.2128 7.24139 9.4839 8.05193 7.46198C9.4533 3.97978 9.53142 3.76489 9.51189 3.52558C9.48748 3.22278 9.33123 2.9737 9.08221 2.83207C8.98943 2.77835 8.49139 2.56834 7.97869 2.3681C6.97283 1.96762 6.79217 1.93344 6.48943 2.0946Z" fill="#005EE6"/>
<path d="M9.87793 4.47309C9.47754 5.54754 7.05566 11.4766 6.96289 11.6182C6.62598 12.1261 5.86914 12.385 5.29785 12.1798C5.19531 12.1408 5.10254 12.1163 5.09277 12.1212C5.08789 12.131 5.24414 13.225 5.44434 14.5583L5.81055 16.9856L5.12695 19.5301C4.68262 21.1808 4.44336 22.1625 4.44336 22.3188C4.44336 22.7583 4.6875 23.1588 5.05371 23.3395C5.17578 23.3981 5.27344 23.4567 5.26367 23.4616C5.25391 23.4713 4.06738 23.7107 2.62695 24.0037L0 24.5263V24.7656V25H12.5H25V22.3236V19.6473L21.8164 20.458C19.0967 21.1466 18.623 21.259 18.5938 21.1906C18.5742 21.1515 18.2227 18.7975 17.8174 15.9551L17.0703 10.7977L17.2363 10.661C17.7686 10.2116 17.6514 9.33742 17.0166 9.02974C16.8945 8.97113 16.7969 8.90764 16.7969 8.89299C16.7969 8.87346 16.7529 8.57066 16.6992 8.2239C16.6113 7.63295 16.5967 7.57923 16.4551 7.45225C16.25 7.26666 16.0059 7.27155 15.8154 7.46202C15.6494 7.63295 15.6396 7.75017 15.7471 8.44368C15.7861 8.69764 15.8105 8.90764 15.8057 8.91253C15.8008 8.91741 15.1904 8.93206 14.4531 8.93695L13.1104 8.95648L12.5342 8.12622C12.2217 7.66714 11.9385 7.25201 11.9092 7.19829C11.8457 7.08596 11.7871 7.04201 12.4414 7.61342C12.6367 7.78435 12.8027 7.91133 12.8125 7.90157C12.8223 7.8918 12.9053 7.70621 12.9932 7.49132C13.125 7.1641 13.1543 7.03712 13.1543 6.7099C13.1592 6.3778 13.1396 6.28012 13.0225 6.04081C12.8027 5.58661 12.6123 5.4694 11.2012 4.89799C10.5127 4.6196 9.93652 4.39006 9.92676 4.39006C9.91699 4.39006 9.89258 4.42913 9.87793 4.47309ZM11.1963 9.68906C11.8506 10.6414 11.9141 10.7244 12.1582 10.8514L12.4219 10.9882L14.2676 10.954C15.2832 10.9345 16.1133 10.9345 16.1133 10.954C16.1133 10.9735 16.4551 13.352 16.875 16.2432C17.29 19.1296 17.6172 21.5129 17.5928 21.5325C17.5439 21.5764 12.5488 22.9488 12.4316 22.9488C12.3584 22.9488 12.3584 22.9341 12.4365 22.7876C12.5195 22.6411 12.5244 22.4115 12.5244 19.5789C12.5244 16.673 12.5195 16.5167 12.4316 16.3555C12.3828 16.2628 11.9482 15.5692 11.4697 14.8122L10.5957 13.4448L11.0547 12.3019L11.5088 11.164L11.3721 10.9638C11.2646 10.8124 10.7031 9.44975 10.4102 8.63903C10.3564 8.48275 10.5127 8.69275 11.1963 9.68906ZM7.70996 13.3275C7.75879 13.352 8.33496 14.2164 8.98926 15.242L10.1807 17.1125L10.2051 19.8475C10.2295 22.7388 10.2197 22.6167 10.4346 23.0025C10.4443 23.0171 9.90723 23.0465 9.24316 23.066C7.8418 23.1099 6.63086 23.1783 6.4209 23.2223L6.27441 23.2565L6.4502 23.0611C6.5625 22.939 6.66016 22.7583 6.7041 22.602C7.06055 21.3615 8.1543 17.176 8.1543 17.0588C8.1543 16.9807 8.0127 16.0967 7.84668 15.0955C7.67578 14.0992 7.55371 13.2787 7.57812 13.2787C7.60254 13.2787 7.66113 13.2982 7.70996 13.3275Z" fill="#005EE6"/>
</svg>
