<svg width="29" height="30" viewBox="0 0 29 30" fill="none" xmlns="http://www.w3.org/2000/svg">
<path d="M15.5663 0C17.1542 0.0043674 17.9601 0.0131022 18.6559 0.0334834L18.9298 0.0436739C19.2459 0.0553203 19.5579 0.0698783 19.9347 0.0873478C21.4365 0.160138 22.4612 0.404712 23.3603 0.764294C24.2919 1.13407 25.0766 1.63486 25.8614 2.44283C26.5791 3.17058 27.1345 4.05089 27.4888 5.02251C27.8374 5.94985 28.0746 7.00676 28.1451 8.55718C28.1621 8.94443 28.1762 9.26616 28.1875 9.59371L28.1959 9.87614C28.2171 10.5924 28.2256 11.4237 28.2284 13.0614L28.2298 14.1475V16.0545C28.2333 17.1164 28.2225 18.1783 28.1973 19.2398L28.1889 19.5223C28.1776 19.8498 28.1635 20.1715 28.1465 20.5588C28.076 22.1092 27.836 23.1647 27.4888 24.0935C27.1355 25.0656 26.58 25.9461 25.8614 26.6731C25.1556 27.4132 24.3022 27.9859 23.3603 28.3517C22.4612 28.7113 21.4365 28.9558 19.9347 29.0286C19.5998 29.0449 19.2648 29.0594 18.9298 29.0723L18.6559 29.081C17.9601 29.1014 17.1542 29.1116 15.5663 29.1145L14.5133 29.116H12.6658C11.6358 29.1196 10.6058 29.1085 9.57609 29.0825L9.30227 29.0738C8.9672 29.0607 8.63221 29.0456 8.29732 29.0286C6.79553 28.9558 5.77082 28.7113 4.87032 28.3517C3.92841 27.9868 3.07526 27.4139 2.37064 26.6731C1.65227 25.9457 1.09642 25.0653 0.741826 24.0935C0.393198 23.1661 0.156074 22.1092 0.0855013 20.5588C0.0697761 20.2134 0.0556615 19.8678 0.0431579 19.5223L0.0361008 19.2398C0.0100907 18.1783 -0.00167269 17.1164 0.000814407 16.0545V13.0614C-0.0031249 11.9996 0.00722683 10.9377 0.0318664 9.87614L0.0417465 9.59371C0.0530381 9.26616 0.0671526 8.94443 0.08409 8.55718C0.154662 7.00676 0.391786 5.9513 0.740414 5.02251C1.09485 4.04989 1.65182 3.16931 2.37205 2.44283C3.07649 1.70252 3.92908 1.12968 4.87032 0.764294C5.77082 0.404712 6.79412 0.160138 8.29732 0.0873478C8.67276 0.0698783 8.9861 0.0553203 9.30227 0.0436739L9.57609 0.0349391C10.6053 0.00907357 11.6348 -0.00208863 12.6643 0.00145569L15.5663 0ZM14.1153 7.27899C12.2436 7.27899 10.4486 8.04589 9.12508 9.41096C7.80159 10.776 7.05806 12.6275 7.05806 14.558C7.05806 16.4885 7.80159 18.3399 9.12508 19.705C10.4486 21.0701 12.2436 21.837 14.1153 21.837C15.987 21.837 17.782 21.0701 19.1055 19.705C20.429 18.3399 21.1726 16.4885 21.1726 14.558C21.1726 12.6275 20.429 10.776 19.1055 9.41096C17.782 8.04589 15.987 7.27899 14.1153 7.27899ZM14.1153 10.1906C14.6714 10.1905 15.222 10.3034 15.7358 10.5228C16.2495 10.7422 16.7164 11.0638 17.1097 11.4693C17.5029 11.8747 17.8149 12.3561 18.0278 12.886C18.2407 13.4158 18.3503 13.9837 18.3504 14.5573C18.3505 15.1308 18.241 15.6987 18.0283 16.2286C17.8156 16.7586 17.5038 17.2401 17.1107 17.6457C16.7175 18.0513 16.2508 18.3731 15.7371 18.5927C15.2234 18.8122 14.6728 18.9253 14.1167 18.9254C12.9937 18.9254 11.9167 18.4652 11.1226 17.6462C10.3285 16.8272 9.88237 15.7163 9.88237 14.558C9.88237 13.3997 10.3285 12.2888 11.1226 11.4698C11.9167 10.6507 12.9937 10.1906 14.1167 10.1906M21.5268 5.0953C21.0589 5.0953 20.6101 5.28702 20.2793 5.62829C19.9484 5.96956 19.7625 6.43242 19.7625 6.91504C19.7625 7.39767 19.9484 7.86053 20.2793 8.2018C20.6101 8.54307 21.0589 8.73479 21.5268 8.73479C21.9948 8.73479 22.4435 8.54307 22.7744 8.2018C23.1053 7.86053 23.2911 7.39767 23.2911 6.91504C23.2911 6.43242 23.1053 5.96956 22.7744 5.62829C22.4435 5.28702 21.9948 5.0953 21.5268 5.0953Z" fill="black"/>
</svg>
