<svg width="8" height="14" viewBox="0 0 8 14" fill="none" xmlns="http://www.w3.org/2000/svg">
<path fill-rule="evenodd" clip-rule="evenodd" d="M0.292787 7.37629C0.105316 7.18876 0 6.93445 0 6.66929C0 6.40412 0.105316 6.14982 0.292787 5.96229L5.94979 0.305288C6.04203 0.209778 6.15238 0.133596 6.27438 0.0811869C6.39639 0.0287779 6.52761 0.00119157 6.66039 3.77564e-05C6.79316 -0.00111606 6.92484 0.0241859 7.04774 0.0744668C7.17064 0.124748 7.28229 0.199001 7.37618 0.292893C7.47007 0.386786 7.54433 0.498438 7.59461 0.621334C7.64489 0.74423 7.67019 0.87591 7.66904 1.00869C7.66788 1.14147 7.6403 1.27269 7.58789 1.39469C7.53548 1.5167 7.4593 1.62704 7.36379 1.71929L2.41379 6.66929L7.36379 11.6193C7.54594 11.8079 7.64674 12.0605 7.64446 12.3227C7.64218 12.5849 7.53701 12.8357 7.35161 13.0211C7.1662 13.2065 6.91538 13.3117 6.65319 13.314C6.39099 13.3162 6.13839 13.2154 5.94979 13.0333L0.292787 7.37629Z" fill="black"/>
</svg>
