<svg width="27" height="27" viewBox="0 0 27 27" fill="none" xmlns="http://www.w3.org/2000/svg">
<path d="M26 1V17.6667H17.0714C17.0304 12.5542 17.4 7.38056 26 1ZM26 17.6667V26H24.2143V21.8333M6.35714 2.38889V26V2.38889ZM1 2.38889V6.55556C1 7.66062 1.56441 8.72043 2.56907 9.50183C3.57373 10.2832 4.93634 10.7222 6.35714 10.7222C7.77795 10.7222 9.14056 10.2832 10.1452 9.50183C11.1499 8.72043 11.7143 7.66062 11.7143 6.55556V2.38889" fill="#005EE6"/>
<path d="M26 17.6667V1C17.4 7.38056 17.0304 12.5542 17.0714 17.6667H26ZM26 17.6667V26H24.2143V21.8333M6.35714 2.38889V26M1 2.38889V6.55556C1 7.66062 1.56441 8.72043 2.56907 9.50183C3.57373 10.2832 4.93634 10.7222 6.35714 10.7222C7.77795 10.7222 9.14056 10.2832 10.1452 9.50183C11.1499 8.72043 11.7143 7.66062 11.7143 6.55556V2.38889" stroke="#005EE6" stroke-width="2" stroke-linecap="round" stroke-linejoin="round"/>
</svg>
