<svg width="30" height="25" viewBox="0 0 30 25" fill="none" xmlns="http://www.w3.org/2000/svg">
<path d="M29.8687 23.322L23.4753 10.5332C23.3104 10.2001 23.0746 9.92413 22.7914 9.73302C22.5082 9.54192 22.1876 9.44237 21.8618 9.44435C21.536 9.44233 21.2156 9.54188 20.9326 9.733C20.6496 9.92412 20.414 10.2001 20.2493 10.5332L18.4166 14.1985C18.374 14.2841 18.3515 14.3817 18.3515 14.4811C18.3515 14.5805 18.374 14.6781 18.4166 14.7637L21.5571 21.079C21.6764 21.3135 21.7196 21.5914 21.6789 21.861C21.6382 22.1305 21.5162 22.3733 21.3356 22.5442C21.2304 22.6411 21.109 22.7102 20.9794 22.747C20.8499 22.7839 20.7152 22.7876 20.5844 22.7579C20.4535 22.7282 20.3295 22.6657 20.2206 22.5748C20.1118 22.4838 20.0205 22.3664 19.9529 22.2303L11.9295 6.09438C11.764 5.76086 11.5278 5.48437 11.2444 5.29226C10.9609 5.10016 10.6401 4.99911 10.3136 4.99911C9.98712 4.99911 9.66629 5.10016 9.38287 5.29226C9.09945 5.48437 8.86326 5.76086 8.69769 6.09438L0.131799 23.3248C0.0284445 23.5307 -0.0159869 23.7707 0.00513046 24.0089C0.0262478 24.2472 0.111783 24.471 0.248979 24.647C0.341363 24.7615 0.452819 24.852 0.576274 24.9127C0.699729 24.9734 0.832487 25.0031 0.966124 24.9998H29.0355C29.1686 25.0017 29.3006 24.9713 29.4233 24.9104C29.5461 24.8495 29.657 24.7593 29.7492 24.6456C29.887 24.4698 29.9731 24.2459 29.9947 24.0074C30.0162 23.7688 29.972 23.5283 29.8687 23.322ZM7.55167 12.7777L10.3136 7.22215L13.0756 12.7777H7.55167ZM16.407 3.3333C16.407 2.67404 16.5719 2.02958 16.881 1.48142C17.19 0.933261 17.6292 0.506023 18.1431 0.253734C18.657 0.00144427 19.2225 -0.0645662 19.768 0.0640499C20.3135 0.192666 20.8146 0.510132 21.208 0.976303C21.6013 1.44247 21.8691 2.03641 21.9776 2.68301C22.0861 3.3296 22.0304 3.99982 21.8176 4.6089C21.6047 5.21798 21.2443 5.73857 20.7818 6.10484C20.3193 6.47111 19.7756 6.6666 19.2193 6.6666C18.4735 6.6666 17.7581 6.31542 17.2307 5.6903C16.7033 5.06519 16.407 4.21735 16.407 3.3333Z" fill="#005EE6"/>
</svg>
