<svg width="17" height="14" viewBox="0 0 17 14" fill="none" xmlns="http://www.w3.org/2000/svg">
<path d="M16.1384 6.07701L12.8081 8.50836L13.8057 12.1282C13.8585 12.3174 13.8434 12.5155 13.7624 12.6976C13.6814 12.8797 13.538 13.0378 13.3501 13.1521C13.1623 13.2664 12.9383 13.3318 12.7062 13.3402C12.4741 13.3486 12.2443 13.2996 12.0453 13.1993L8.27118 11.2844L4.50518 13.1993C4.30623 13.2996 4.07634 13.3486 3.84427 13.3402C3.61219 13.3318 3.38823 13.2664 3.20037 13.1521C3.01252 13.0378 2.86911 12.8797 2.78807 12.6976C2.70704 12.5155 2.69197 12.3174 2.74476 12.1282L3.74091 8.51206L0.409846 6.07701C0.233662 5.9499 0.106263 5.7821 0.0436251 5.59466C-0.0190132 5.40722 -0.0141026 5.20848 0.057741 5.02337C0.129585 4.83826 0.265163 4.67501 0.447475 4.55409C0.629786 4.43318 0.850715 4.35998 1.08256 4.34369L5.47327 4.02556L7.18717 0.60586C7.27667 0.426423 7.42763 0.273149 7.62106 0.165338C7.81448 0.0575271 8.04171 0 8.27414 0C8.50656 0 8.73379 0.0575271 8.92722 0.165338C9.12064 0.273149 9.2716 0.426423 9.36111 0.60586L11.0802 4.02556L15.4694 4.34369C15.7012 4.35998 15.9222 4.43318 16.1045 4.55409C16.2868 4.67501 16.4224 4.83826 16.4942 5.02337C16.5661 5.20848 16.571 5.40722 16.5083 5.59466C16.4457 5.7821 16.3183 5.9499 16.1421 6.07701H16.1384Z" fill="#FFA100"/>
</svg>
