<svg width="394" height="104" viewBox="0 0 394 104" fill="none" xmlns="http://www.w3.org/2000/svg">
<mask id="mask0_1779_1517" style="mask-type:luminance" maskUnits="userSpaceOnUse" x="0" y="0" width="394" height="104">
<path d="M0 0H393.982V103.65H0V0Z" fill="white"/>
</mask>
<g mask="url(#mask0_1779_1517)">
<path fill-rule="evenodd" clip-rule="evenodd" d="M169.224 40.0739L169.631 43.2717C169.631 45.6107 169.065 43.2717 169.224 40.0739ZM155.91 100.884C166.14 100.952 174.094 101.542 174.094 102.269C174.094 103.07 165.161 103.65 154.034 103.65C142.99 103.65 134.057 102.991 134.057 102.269C134.057 101.685 137.961 101.611 133.574 101.611C117.818 101.611 105.064 100.663 105.064 99.5721C105.064 98.4816 118.219 98.9136 133.98 98.9136C149.736 98.9136 162.16 98.7714 162.16 99.5721C162.16 100.452 159.807 100.52 155.91 100.884ZM176.86 96.0741C187.904 96.0741 196.914 96.7326 196.914 97.5334C196.914 98.3341 187.904 98.9136 176.86 98.9136C165.733 98.9136 156.8 98.2656 156.8 97.5334C156.8 96.6641 165.81 96.0741 176.86 96.0741ZM331.001 66.7307C331.083 66.3619 330.924 65.7824 330.6 65.3399C329.945 67.1626 327.433 67.8896 327.186 67.5314C327.994 66.1406 328.489 64.8341 328.241 63.4486C333.843 64.7604 338.879 68.9117 340.913 71.2402C337.257 64.3231 329.544 61.7734 327.103 61.4099C327.994 65.3399 325.558 68.4007 320.363 67.1626C324.019 66.8729 326.13 65.4189 325.883 63.3749C323.607 65.3399 321.336 66.1406 318.984 65.4189C317.038 64.4706 315.735 63.4486 314.514 62.5004C313.624 62.1421 313.783 61.4098 315.004 62.2106C316.389 63.0851 317.681 63.9596 319.225 64.0334C319.385 61.4098 318.824 59.5923 317.356 58.4966C317.197 58.3543 316.949 58.2068 316.714 58.1331C316.218 58.0646 316.466 58.6441 316.714 59.0813C317.356 60.1718 317.769 61.1201 318.005 62.2106C317.114 60.1034 315.086 58.2753 316.301 57.6958C316.949 57.4061 317.769 57.8433 318.412 58.4966C319.308 59.5133 319.791 60.9726 319.88 63.0114C320.204 61.1201 320.039 59.7346 319.308 58.7126C320.44 58.7126 321.661 59.8821 321.991 61.4099C323.206 61.4099 324.019 60.7566 324.019 59.6608C324.585 59.5133 325.558 60.0243 325.965 60.3931C325.399 59.3711 323.206 58.4228 321.336 59.5923C321.012 58.8653 320.77 58.4228 319.715 58.0646C327.345 56.2366 342.617 63.8121 344.651 73.2789L344.563 73.358C344.156 71.9672 343.431 70.6607 342.534 69.6387C343.271 70.8767 343.832 72.1884 344.238 73.5002C343.271 74.0059 341.968 74.4485 341.155 74.4485C340.989 74.1534 340.824 73.8637 340.665 73.5739C342.045 72.2569 341.155 71.8249 339.285 71.8249C337.174 69.9284 334.167 68.0371 331.001 66.7307ZM240.778 75.9762C259.128 75.834 275.939 75.6865 291.046 75.6127C292.667 74.9542 299.331 74.085 310.941 72.8469C314.679 72.8469 319.149 74.3062 320.853 71.5352C321.012 71.3192 321.171 71.1664 321.496 71.0242C319.149 69.9284 316.949 68.5482 315.086 66.8729C314.031 65.4926 313.459 63.9596 313.134 62.1421C313.052 61.8524 313.223 61.5521 313.865 61.3361C314.437 61.1201 315.086 61.3361 315.894 61.7049C315.086 60.6828 314.597 59.4448 314.514 57.9856C314.437 55.8783 315.004 53.181 316.466 49.8305C318.17 45.9005 318.253 42.3287 317.197 39.3417C316.466 37.1554 315.086 35.2642 313.299 33.6574C311.507 32.0611 309.237 30.8231 306.719 29.9486C301.607 28.1311 295.185 27.9098 288.935 29.7274C253.933 42.1127 244.835 29.4376 232.081 11.8105C231.35 10.799 230.542 9.70321 229.811 8.60744C218.118 -5.52167 195.623 1.39538 170.527 26.1608C171.176 26.5981 172.072 27.4726 171.983 28.1311L172.308 28.4893L173.611 26.1608C174.749 26.5981 175.887 27.1091 176.942 27.6201C177.102 27.7623 177.184 27.9836 177.184 28.1311C177.184 28.3418 177.025 28.4209 176.777 28.4893L173.528 26.8878L172.555 28.7791C173.363 29.5798 173.287 29.8801 172.231 29.5114C171.748 29.5114 171.423 29.3691 171.252 29.2216C171.011 29.1479 170.851 29.0003 170.769 28.8581C170.692 28.6368 170.604 28.4893 170.692 28.3418C170.444 28.5631 170.368 28.9319 170.604 29.4376C170.368 29.5114 170.038 29.5798 169.713 29.5114C169.065 29.2216 168.658 28.7791 168.658 28.1996C168.416 28.7791 168.74 29.3691 169.631 29.8801C170.279 30.3121 170.444 30.8969 169.955 31.6186C170.279 32.2771 169.955 33.1569 169.065 34.2474C169.472 33.0779 169.548 32.2086 169.389 31.6976C169.224 32.7881 168.9 33.6679 168.493 34.3159C169.141 34.4634 169.548 34.7584 169.713 35.1166L170.038 38.1037C170.279 40.3637 170.038 41.9652 170.527 44.22C170.604 47.6495 166.865 48.8085 163.463 47.718C161.836 47.2123 160.208 46.5537 159.312 45.6107C154.606 40.6534 151.847 37.8139 151.275 41.0907C150.626 43.8617 149.488 48.74 148.68 50.705C161.836 49.899 170.527 50.489 174.914 51.216C185.711 54.5666 140.071 59.0076 121.309 61.1939C129.104 61.4098 201.708 56.8951 179.295 51.0685C183.435 50.7788 250.602 48.5187 267.654 47.5705C268.716 47.502 276.181 47.4282 272.849 49.3195C270.827 50.489 264.812 51.727 259.612 52.4488C230.058 56.3156 151.523 64.3231 136.085 66.6516C155.013 64.9026 267.248 56.8266 275.697 50.921C276.104 61.4099 248.491 72.0462 240.778 75.9762ZM316.142 61.8524C316.548 61.9946 317.038 62.2106 317.521 62.3528C316.949 60.9726 315.658 59.9558 315.493 58.4228C315.41 57.6221 316.218 57.0373 318.659 57.7696C324.178 56.5263 330.836 58.3543 336.933 62.2844C338.065 63.0114 340.423 61.3361 340.423 61.3361C341.32 60.7566 342.375 60.3931 343.431 60.4616H343.59L343.507 60.6144C343.431 60.8251 343.348 61.1201 343.271 61.3361L343.755 61.4836L343.183 61.9209C343.183 62.1421 343.1 62.3528 343.1 62.5741L343.507 62.7216L343.024 63.2326C343.024 63.5224 343.024 63.8121 343.1 64.1809L343.431 64.2494L343.1 64.6129C343.183 64.9816 343.271 65.4189 343.348 65.8509C343.59 66.8729 343.914 67.8896 344.238 68.9117C344.651 70.3709 344.97 71.6089 345.211 72.8469C345.866 72.1884 348.785 71.5352 345.459 70.6607C350.005 69.1277 350.088 73.358 353.254 72.8469C359.345 71.8249 364.788 74.9542 369.257 75.107C377.459 75.0279 394.512 74.2272 393.864 75.6127C393.209 76.9982 375.101 78.5945 368.685 78.742C367.382 78.742 366.25 78.8157 365.112 78.8157C362.028 79.1055 358.207 79.3267 353.744 79.6165C352.199 79.9853 353.744 80.491 358.29 81.0758C359.752 81.2918 369.741 83.1145 353.661 83.9153C346.674 84.0628 336.042 85.1533 332.463 85.5221C326.702 86.1015 326.779 84.932 328.813 83.989C327.834 83.989 326.861 83.989 325.806 83.989C324.827 83.989 323.854 83.989 322.964 83.989C323.607 84.1313 324.102 84.3525 324.102 84.5685C324.102 84.932 322.799 85.1533 321.26 85.1533C319.715 85.0795 318.412 84.7213 318.412 84.3525C318.412 84.2103 318.659 84.0628 319.149 83.9153C316.059 83.8415 313.942 83.6203 313.942 83.4043C313.942 83.0408 319.225 82.8248 325.806 82.8248C328.4 82.8248 330.759 82.8248 332.711 82.8933H332.787C337.334 82.4613 342.617 81.1442 328.159 82.024C324.178 82.24 320.116 81.4393 312.975 82.3138C307.609 82.4613 305.257 81.6552 305.658 80.7807C256.935 81.5815 249.953 82.3138 284.713 82.8933C290.798 83.0408 332.787 84.2788 265.219 85.5905C235.737 86.0278 191.401 87.408 176.37 87.8506C140.396 89.0096 158.421 86.1016 177.75 85.5168C196.914 84.932 218.849 83.5518 158.18 84.932C141.534 85.3008 124.393 84.7213 94.5091 85.8118C53.0035 86.5388 53.658 83.6203 93.9371 83.1145C142.666 81.513 139.016 80.275 90.2046 81.0758C-17.3184 82.024 -27.714 81.2918 55.2029 78.4522C50.2498 78.2362 45.8628 78.015 42.3721 77.6515C40.8272 77.504 31.4045 70.0759 48.7816 63.8121C59.0179 60.1034 97.6755 55.6571 112.381 53.9871L113.596 54.8563L113.024 37.7454C113.266 36.0649 114.404 35.1957 116.196 35.0482L132.518 37.8877C134.546 38.2459 134.953 38.3987 135.437 40.5059C135.684 41.6755 135.926 43.3507 136.091 45.8215C136.333 43.277 136.416 41.312 136.333 39.9264C136.256 37.2344 136.168 37.3029 133.491 36.8657L123.585 35.1957C123.178 32.6406 124.805 28.3418 128.862 25.7921C127.565 27.9836 127.648 29.8011 127.883 32.4984C128.939 26.3031 131.38 20.9138 136.657 21.2825C137.548 20.2658 138.12 19.6073 138.367 19.386C125.938 18.227 132.111 13.5595 137.548 12.3952C138.768 9.26069 138.692 6.42117 142.424 5.77319C143.969 5.47291 144.942 5.40442 147.212 5.55193C146.157 5.55193 145.921 7.07969 142.507 7.51167C145.756 7.73293 147.053 5.26218 149.488 6.42117C151.275 7.36943 152.33 9.4082 152.495 12.5427C152.578 11.231 152.655 10.6515 152.655 10.799C163.215 11.958 161.429 17.0575 152.419 18.8065C151.764 20.9138 150.951 22.6628 148.515 22.6628C146.157 22.6628 151.198 26.0133 152.578 26.7403C154.282 27.5411 158.18 29.9486 160.703 34.2474L166.382 27.8414L165.326 27.1828C165.085 26.3821 165.25 25.6498 165.733 25.0703C166.223 24.4856 166.954 24.1958 167.762 24.1958L168.976 25.0703C201.224 -5.59015 221.449 -4.35215 230.377 9.11845C230.949 9.9192 231.515 10.72 232.169 11.5207C244.835 29.1479 253.933 41.7439 288.852 29.3691C295.185 27.5411 301.607 27.8414 306.719 29.5798C309.319 30.4596 311.507 31.7714 313.382 33.3676C315.163 34.9744 316.548 36.8657 317.356 39.0519C318.412 42.1127 318.329 45.6792 316.625 49.6883C315.163 53.0388 314.514 55.7308 314.679 57.7696C314.679 59.5923 315.245 60.8251 316.142 61.8524ZM327.268 73.1367L327.917 73.2789C328.159 73.358 328.489 73.4264 328.725 73.5002C328.725 73.5002 328.725 73.574 328.725 73.6477C327.021 73.9375 325.883 74.085 325.883 73.9374C325.883 73.5739 326.378 73.358 327.268 73.1367ZM331.815 73.0629C331.732 72.847 331.732 72.6257 331.655 72.4097C331.732 72.6257 331.815 72.847 331.815 73.0629ZM182.951 90.2476C231.756 90.2476 271.31 91.1273 271.31 92.2863C271.31 93.4558 231.756 94.3251 182.951 94.3251C134.145 94.3251 94.5916 93.4558 94.5916 92.2863C94.5916 91.1273 134.145 90.2476 182.951 90.2476ZM368.361 81.4393C369.906 81.513 371.209 81.8765 371.209 82.24C371.209 82.6035 369.906 82.8195 368.361 82.8195C366.822 82.751 365.519 82.3823 365.519 82.024C365.519 81.6553 366.822 81.3655 368.361 81.4393ZM342.935 64.4706C341.968 64.4706 341.479 65.2714 340.989 65.6349C341.32 65.9299 341.396 65.9984 341.396 65.9984C341.803 65.7824 342.045 64.7604 342.935 64.4706ZM342.776 63.0114C341.561 62.9429 340.748 64.3231 339.934 64.6919C340.264 64.9816 340.5 65.1239 340.5 65.1239C340.824 64.8341 341.644 63.3749 342.776 63.0114ZM342.699 61.7049C341.644 61.7049 339.769 63.0114 338.637 63.5224C339.12 63.9596 339.368 64.1809 339.368 64.1809C339.934 63.6699 341.155 61.9946 342.699 61.7049ZM328.159 72.3359C324.261 70.9504 321.496 70.5184 317.038 67.2364C319.385 68.8379 321.584 69.6387 323.772 69.6387C324.998 70.5869 326.455 71.5352 328.159 72.3359ZM322.716 60.2456C322.474 60.5353 322.068 60.5353 321.826 60.3141C321.826 60.6038 321.991 60.8251 322.233 60.9726C322.964 61.4098 324.019 60.1034 323.288 59.6608C323.046 59.5133 322.716 59.5133 322.392 59.5923C322.799 59.6608 322.964 60.0243 322.716 60.2456ZM40.9923 83.262C47.4902 83.262 52.8443 83.5518 52.8443 83.8415C52.8443 84.1313 47.5669 84.421 40.9923 84.421C34.4118 84.421 29.1285 84.1313 29.1285 83.8415C29.1285 83.5518 34.4118 83.262 40.9923 83.262ZM129.428 86.8286C135.932 86.8286 141.286 87.1183 141.286 87.408C141.286 87.7031 136.009 87.9928 129.428 87.9928C122.854 87.9928 117.576 87.7031 117.576 87.408C117.576 87.1183 122.854 86.8286 129.428 86.8286ZM162.083 35.7752C162.083 35.7752 165.409 39.9264 165.733 40.5059C165.409 39.3417 164.194 37.5979 163.622 36.9394C164.678 36.5022 164.518 36.5022 164.843 34.9744C165.574 34.1684 166.464 33.8101 167.596 33.8786C166.629 33.5151 165.651 33.6574 164.754 34.2474C164.843 33.4466 164.843 33.0094 164.843 33.0094C163.947 34.0999 162.974 35.0482 162.083 35.7752ZM153.799 12.1792C154.117 14.7975 150.791 16.0355 143.81 16.0355C149.488 15.5982 152.82 14.2865 153.799 12.1792Z" fill="#7BAAEE"/>
</g>
</svg>
