<svg width="32" height="35" viewBox="0 0 32 35" fill="none" xmlns="http://www.w3.org/2000/svg">
<path d="M4.77124 0.859029L16 13.14L27.1706 0.922661C27.4173 0.635419 27.7146 0.405636 28.0445 0.247089C28.3744 0.0885431 28.7302 0.00449986 29.0905 0C29.862 0 30.602 0.335202 31.1475 0.931866C31.693 1.52853 31.9995 2.33778 31.9995 3.18159C32.0063 3.57166 31.9401 3.95913 31.8051 4.32022C31.67 4.68131 31.4689 5.00841 31.2141 5.28144L19.8981 17.4987L31.2141 29.8751C31.6935 30.3881 31.9747 31.0828 31.9995 31.8159C31.9995 32.6597 31.693 33.469 31.1475 34.0656C30.602 34.6623 29.862 34.9975 29.0905 34.9975C28.7198 35.0143 28.3499 34.9466 28.0044 34.7987C27.6588 34.6509 27.3452 34.426 27.0833 34.1385L16 21.8575L4.80033 34.1066C4.55454 34.3843 4.2609 34.606 3.93636 34.7589C3.61183 34.9118 3.26282 34.9929 2.90948 34.9975C2.13796 34.9975 1.39805 34.6623 0.852501 34.0656C0.306957 33.469 0.000473314 32.6597 0.000473314 31.8159C-0.00630902 31.4258 0.0598619 31.0384 0.194926 30.6773C0.329989 30.3162 0.531097 29.9891 0.785905 29.716L12.1019 17.4987L0.785905 5.12236C0.306457 4.60936 0.0253151 3.91467 0.000473314 3.18159C0.000473314 2.33778 0.306957 1.52853 0.852501 0.931866C1.39805 0.335202 2.13796 0 2.90948 0C3.60764 0.00954477 4.27671 0.318159 4.77124 0.859029Z" fill="black"/>
</svg>
