<svg width="25" height="25" viewBox="0 0 25 25" fill="none" xmlns="http://www.w3.org/2000/svg">
<path d="M1.38889 11.1111C0.99537 11.1111 0.665741 10.9778 0.4 10.7111C0.134259 10.4444 0.000925926 10.1148 0 9.72222V1.38889C0 0.99537 0.133333 0.665741 0.4 0.4C0.666667 0.134259 0.996296 0.000925926 1.38889 0H9.72222C10.1157 0 10.4458 0.133333 10.7125 0.4C10.9792 0.666667 11.112 0.996296 11.1111 1.38889V9.72222C11.1111 10.1157 10.9778 10.4458 10.7111 10.7125C10.4444 10.9792 10.1148 11.112 9.72222 11.1111H1.38889ZM15.2778 11.1111C14.8843 11.1111 14.5546 10.9778 14.2889 10.7111C14.0231 10.4444 13.8898 10.1148 13.8889 9.72222V1.38889C13.8889 0.99537 14.0222 0.665741 14.2889 0.4C14.5556 0.134259 14.8852 0.000925926 15.2778 0H23.6111C24.0046 0 24.3347 0.133333 24.6014 0.4C24.868 0.666667 25.0009 0.996296 25 1.38889V9.72222C25 10.1157 24.8667 10.4458 24.6 10.7125C24.3333 10.9792 24.0037 11.112 23.6111 11.1111H15.2778ZM1.38889 25C0.99537 25 0.665741 24.8667 0.4 24.6C0.134259 24.3333 0.000925926 24.0037 0 23.6111V15.2778C0 14.8843 0.133333 14.5546 0.4 14.2889C0.666667 14.0231 0.996296 13.8898 1.38889 13.8889H9.72222C10.1157 13.8889 10.4458 14.0222 10.7125 14.2889C10.9792 14.5556 11.112 14.8852 11.1111 15.2778V23.6111C11.1111 24.0046 10.9778 24.3347 10.7111 24.6014C10.4444 24.868 10.1148 25.0009 9.72222 25H1.38889ZM19.4444 25C19.0509 25 18.7213 24.8667 18.4556 24.6C18.1898 24.3333 18.0565 24.0037 18.0556 23.6111V20.8333H15.2431C14.8495 20.8333 14.5255 20.7 14.2708 20.4333C14.0162 20.1667 13.8889 19.837 13.8889 19.4444C13.8889 19.0518 14.0222 18.7222 14.2889 18.4556C14.5556 18.1889 14.8852 18.0556 15.2778 18.0556H18.0556V15.2431C18.0556 14.8495 18.1889 14.5255 18.4556 14.2708C18.7222 14.0162 19.0518 13.8889 19.4444 13.8889C19.837 13.8889 20.1671 14.0222 20.4347 14.2889C20.7023 14.5556 20.8352 14.8852 20.8333 15.2778V18.0556H23.6458C24.0393 18.0556 24.3634 18.1889 24.6181 18.4556C24.8727 18.7222 25 19.0518 25 19.4444C25 19.837 24.8667 20.1671 24.6 20.4347C24.3333 20.7023 24.0037 20.8352 23.6111 20.8333H20.8333V23.6458C20.8333 24.0393 20.7 24.3634 20.4333 24.6181C20.1667 24.8727 19.837 25 19.4444 25Z" fill="#005EE6"/>
</svg>
