<svg width="1745" height="279" viewBox="0 0 1745 279" fill="none" xmlns="http://www.w3.org/2000/svg">
<path d="M1588.56 29.7724C1562.97 36.9931 1541.5 46.9479 1513.48 52.3025C1421.06 69.9728 1344.27 8.8812 1272.36 23.9878C1250.28 28.6285 1235.27 37.5042 1219.67 45.5849C1204.06 53.6655 1185.15 61.6894 1160.8 63.3363C1117.43 66.2814 1080.74 48.1324 1036.93 46.7532C978.811 44.9196 932.177 72.6502 874.196 70.1432C819.244 67.7742 793.138 41.2444 755.571 24.1014C627.495 -34.3292 481.806 28.7258 366.783 53.4546C312.732 65.0806 247.123 66.5978 190.33 57.649C188.394 57.3407 186.478 57.0243 184.561 56.6998C96.7368 41.5851 36.5135 40.068 0 61.2918V101.143C31.9325 90.499 92.3475 82.2155 113.355 93.3791C126.829 100.527 121.999 121.515 150.482 120.923C162.289 120.688 172.371 117.434 182.031 114.538C191.672 111.642 202.904 108.851 214.558 109.662C227.553 110.563 236.542 115.666 241.813 120.777C308.688 185.625 413.072 107.301 474.503 87.2781C581.398 52.4404 612.219 120.201 704.145 112.915C757.813 108.656 774.565 83.0512 835.44 94.5636C874.465 101.947 927.232 121.313 972.984 113.816C1003.65 108.778 1035.7 93.4684 1072.4 98.9609C1102.29 103.439 1108.32 121.588 1131.61 129.864C1141.52 133.369 1155.19 135.437 1167.51 133.815C1198.12 129.775 1196.21 108.672 1224.82 102.555C1238.68 99.6019 1256.79 100.973 1268.96 96.8921C1283.42 92.0648 1281.29 82.7266 1287.19 75.3356C1295.7 64.675 1324.49 58.3387 1350.25 60.302C1382.47 62.7684 1397.58 77.0799 1414.08 87.5539C1463.15 117.361 1530.86 94.1742 1577.84 79.6031C1614.49 68.2285 1663.14 64.0746 1707.36 68.5206C1721.14 69.9161 1733.65 71.8875 1745 74.3458V19.4039C1690.68 14.4873 1628.58 18.479 1588.56 29.7724Z" fill="#7CABEE"/>
<path d="M1639.25 142.115C1570.2 140.873 1503.15 129.443 1434.32 131.848C1323.07 135.747 1238.74 174.277 1128.3 180.631C1034.97 185.994 945.192 167.45 861.795 150.866C778.341 134.296 681.739 118.725 592.285 130.046C544.885 136.034 506.32 148.906 463.271 158.426C338.109 186.123 163.055 181.887 59.9933 143.464C34.9226 134.124 14.7012 123.039 0 111V279H1745V135.144C1709.46 140.205 1672.24 142.71 1639.25 142.115Z" fill="#005EE6"/>
<path d="M1571.5 74.5008C1524.71 89.1008 1457.26 112.334 1408.39 82.4674C1391.96 71.9727 1376.91 57.6328 1344.82 55.1616C1319.17 53.1943 1290.49 59.5432 1282.02 70.2249C1276.14 77.6306 1278.88 84.4645 1263.86 91.824C1251.74 95.913 1233.7 94.5392 1219.9 97.4982C1191.4 103.628 1193.3 124.772 1162.82 128.82C1150.54 130.446 1136.93 128.373 1127.06 124.861C1103.87 116.569 1097.85 98.3843 1068.09 93.897C1031.53 88.3935 999.616 103.733 969.072 108.781C923.504 116.293 870.949 96.8885 832.081 89.491C771.451 77.9557 754.766 103.611 701.314 107.879C609.758 115.179 579.061 47.2844 472.595 82.191C411.411 102.254 307.446 180.733 240.841 115.756C235.591 110.635 226.638 105.522 213.695 104.619C202.088 103.806 190.901 106.603 181.299 109.505C171.677 112.407 161.636 115.667 149.877 115.903C121.509 116.496 126.319 95.4659 112.899 88.3041C91.9762 77.1184 31.8041 85.4183 0 96.0837V144.854C14.6421 158.487 35.1153 168.117 60.0852 178.693C170.159 217.738 337.51 225.152 462.168 193.79C505.045 183.011 556.4 169.334 603.61 162.554C726.802 157.869 731.935 164.116 857.408 183.378C940.469 202.157 1030.81 221.752 1123.76 215.68C1233.76 208.485 1319.79 170.613 1430.59 166.198C1499.14 163.475 1563.71 175.725 1632.49 177.131C1665.34 177.806 1709.61 174.537 1745 168.806V67.8057C1733.7 65.3425 1714.22 64.7946 1700.49 63.3964C1656.45 58.9416 1608 63.1038 1571.5 74.5008Z" fill="#146CEB"/>
</svg>
