<svg width="21" height="18" viewBox="0 0 21 18" fill="none" xmlns="http://www.w3.org/2000/svg">
<path d="M20.6279 9.91097L13.0692 17.6229C12.8325 17.8643 12.5115 18 12.1769 18C11.8422 18 11.5212 17.8643 11.2845 17.6229C11.0478 17.3814 10.9149 17.0539 10.9149 16.7125C10.9149 16.371 11.0478 16.0435 11.2845 15.802L16.6921 10.2869H1.25978C0.925668 10.2869 0.605237 10.1515 0.368982 9.91046C0.132727 9.66942 0 9.34249 0 9.00161C0 8.66072 0.132727 8.33379 0.368982 8.09275C0.605237 7.8517 0.925668 7.71629 1.25978 7.71629H16.6921L11.2866 2.19798C11.0499 1.95652 10.917 1.62903 10.917 1.28755C10.917 0.946069 11.0499 0.618576 11.2866 0.377114C11.5233 0.135652 11.8443 5.08844e-09 12.1789 0C12.5136 -5.08844e-09 12.8346 0.135652 13.0713 0.377114L20.63 8.08903C20.7475 8.2086 20.8406 8.35067 20.9041 8.50708C20.9676 8.66349 21.0002 8.83115 21 9.00044C20.9998 9.16974 20.9668 9.33733 20.903 9.49358C20.8391 9.64984 20.7456 9.79168 20.6279 9.91097Z" fill="black"/>
</svg>
