<svg width="30" height="22" viewBox="0 0 30 22" fill="none" xmlns="http://www.w3.org/2000/svg">
<path d="M27.0001 22C27.7957 22 28.5587 21.7425 29.1213 21.284C29.6839 20.8256 30 20.2039 30 19.5556V13.5862C30 12.9379 29.6839 12.3162 29.1213 11.8577C28.5587 11.3993 27.7957 11.1418 27.0001 11.1418H22.8361C22.8361 10.283 22.8981 9.42415 23.0221 8.56533C23.2081 7.656 23.5181 6.8477 23.9521 6.14044C24.3861 5.43319 24.9451 4.87667 25.6291 4.47089C26.3091 4.01622 27.1771 3.78889 28.233 3.78889V0C26.4971 0 24.9771 0.303111 23.6731 0.909333C22.3782 1.50792 21.2656 2.33678 20.4182 3.33422C19.565 4.43214 18.9368 5.63587 18.5582 6.89822C18.1754 8.29093 17.9882 9.7146 18.0002 11.1418V19.5556C18.0002 20.2039 18.3163 20.8256 18.8789 21.284C19.4415 21.7425 20.2045 22 21.0002 22H27.0001ZM9.00038 22C9.79602 22 10.5591 21.7425 11.1217 21.284C11.6843 20.8256 12.0003 20.2039 12.0003 19.5556V13.5862C12.0003 12.9379 11.6843 12.3162 11.1217 11.8577C10.5591 11.3993 9.79602 11.1418 9.00038 11.1418H4.83646C4.83646 10.283 4.89846 9.42415 5.02245 8.56533C5.21045 7.656 5.52045 6.8477 5.95244 6.14044C6.38643 5.43319 6.94542 4.87667 7.62941 4.47089C8.3094 4.01622 9.17738 3.78889 10.2334 3.78889V0C8.49739 0 6.97742 0.303111 5.67344 0.909333C4.37849 1.50792 3.26591 2.33678 2.4185 3.33422C1.56535 4.43214 0.937152 5.63587 0.558537 6.89822C0.175694 8.29093 -0.0115056 9.7146 0.000546874 11.1418V19.5556C0.000546874 20.2039 0.316612 20.8256 0.87921 21.284C1.44181 21.7425 2.20486 22 3.00049 22H9.00038Z" fill="#8D15E9"/>
</svg>
