<svg width="88" height="58" viewBox="0 0 88 58" fill="none" xmlns="http://www.w3.org/2000/svg">
<path fill-rule="evenodd" clip-rule="evenodd" d="M36.6175 16.0499C37.0071 16.5265 37.6011 16.8042 38.2293 16.8034C39.1784 16.8028 40.003 16.1726 40.2232 15.2798L43.3084 2.77769C43.4792 2.08807 43.2566 1.36273 42.7244 0.874905C42.1922 0.38708 41.4314 0.210877 40.7284 0.412672C40.0255 0.614466 39.4873 1.1636 39.3165 1.85322L36.2313 14.3593C36.0855 14.9503 36.2278 15.5733 36.6175 16.0499ZM4.2056 16.8786C4.48966 17.6807 5.26945 18.2196 6.14618 18.2196C6.80852 18.2196 7.43009 17.9103 7.81514 17.3891C8.2002 16.8679 8.30135 16.199 8.08676 15.593L3.99637 4.0471C3.6293 3.00953 2.46198 2.45618 1.3891 2.81117C0.316217 3.16616 -0.255959 4.29505 0.11111 5.33263L4.2056 16.8786ZM65.266 30.2022C64.3867 30.2051 63.6033 29.6658 63.3183 28.8614C63.0333 28.0569 63.3101 27.1663 64.0065 26.6471L75.2151 18.2515C76.1112 17.5799 77.4007 17.738 78.0952 18.6046C78.7896 19.4713 78.6262 20.7183 77.73 21.39L66.5215 29.7855C66.1624 30.0554 65.7207 30.202 65.266 30.2022ZM68.792 55.9567C68.8531 57.0095 69.7552 57.8321 70.8455 57.8293C70.9237 57.8294 71.0017 57.8255 71.0794 57.8174L85.6481 56.2223C86.7742 56.0996 87.5843 55.1173 87.4574 54.0282C87.3305 52.9392 86.3147 52.1558 85.1886 52.2785L70.6158 53.8735C69.532 53.9888 68.7308 54.9039 68.792 55.9567Z" fill="#ECC331"/>
</svg>
