<svg width="25" height="25" viewBox="0 0 25 25" fill="none" xmlns="http://www.w3.org/2000/svg">
<path d="M7.11528 8.20312L8.21389 0H2.5L0.1125 7.03125C0.0388888 7.28125 0 7.54063 0 7.8125C0 9.5375 1.59722 10.9375 3.57083 10.9375C5.39028 10.9375 6.89444 9.74375 7.11528 8.20312ZM12.5 10.9375C14.4722 10.9375 16.0708 9.5375 16.0708 7.8125C16.0708 7.74844 16.0667 7.68438 16.0639 7.62344L15.3569 0H9.64305L8.93472 7.61719C8.93144 7.68223 8.92959 7.74735 8.92917 7.8125C8.92917 9.5375 10.5278 10.9375 12.5 10.9375ZM19.4444 12.5719V18.75H5.55556V12.5813C4.94722 12.8281 4.27778 12.9688 3.57083 12.9688C3.3 12.9688 3.0375 12.9328 2.77778 12.8922V22.8125C2.77778 24.0156 3.65139 25 4.71944 25H20.2778C21.3472 25 22.2222 24.0141 22.2222 22.8125V12.8938C21.9597 12.9391 21.6947 12.9647 21.4292 12.9703C20.7519 12.9695 20.0801 12.8347 19.4444 12.5719ZM24.8889 7.03125L22.4986 0H16.7861L17.8833 8.19063C18.0972 9.7375 19.6014 10.9375 21.4292 10.9375C23.4014 10.9375 25 9.5375 25 7.8125C25 7.54063 24.9611 7.28125 24.8889 7.03125Z" fill="#005EE6"/>
</svg>
