<svg width="188" height="169" viewBox="0 0 188 169" fill="none" xmlns="http://www.w3.org/2000/svg">
<path d="M6.96182 127.641C7.07804 126.887 7.21889 126.134 7.33511 125.379C9.02394 115.487 11.1613 105.673 13.9024 95.969C16.6683 86.29 20.0368 76.746 24.2909 67.5463L24.6763 66.6905L25.0888 65.8365L25.9113 64.1283L26.761 62.4208L27.1994 61.5685C27.3447 61.2928 27.49 61.0161 27.6378 60.7162L28.5392 59.0365L29.4666 57.3584L29.9297 56.5321L30.4199 55.7065L31.399 54.0563C31.9456 53.1634 32.4898 52.2936 33.0363 51.4006L32.8797 51.3427L33.2956 50.4179L33.5817 50.532C34.2116 49.5491 34.8674 48.5679 35.5231 47.5867C36.9756 45.4671 38.5058 43.4003 40.1125 41.3617C41.7204 39.3233 43.4037 37.362 45.1648 35.429C46.9259 33.5205 48.7648 31.6403 50.7038 29.8622C54.5571 26.3043 58.7675 23.0316 63.3034 20.1621C63.9579 19.7522 64.6137 19.3425 65.2683 18.9571L65.1433 18.8057L66.0705 18.2473L66.1944 18.4219C69.874 16.2818 73.7789 14.4184 77.8021 12.8479C80.3416 11.847 82.979 10.9957 85.6365 10.2655C88.2954 9.53434 91.0027 8.90176 93.729 8.41359C96.4553 7.92651 99.2278 7.56009 102.023 7.31499C104.657 7.08262 107.313 6.94716 109.965 6.93015L109.971 6.81179L110.871 6.82307L110.866 6.91821C116.326 6.91877 121.766 7.32309 127.161 8.10505C132.715 8.89744 138.196 10.0901 143.583 11.6106C146.278 12.3587 148.94 13.2245 151.546 14.1565C152.848 14.6236 154.15 15.1139 155.424 15.6258L155.426 15.5782L156.289 15.8256L156.255 15.9666C156.646 16.1109 157.009 16.2778 157.373 16.4437C158.022 16.7248 158.645 17.0042 159.293 17.3086L158.917 17.9509C158.294 17.6715 157.671 17.3921 157.049 17.1371C156.711 16.9962 156.373 16.8553 156.035 16.7133L155.849 17.2726C156.941 17.7015 158.008 18.1287 159.099 18.6052L159.15 18.633C164.477 20.863 181.989 29.8705 183.896 52.7166C184.165 55.9721 183.19 58.6479 181.028 60.6489C174.152 67.0336 156.376 66.3444 139.181 65.6944C123.865 65.1187 109.369 64.5491 104.197 69.1169C102.205 70.8671 101.277 73.0933 101.495 75.7508C101.707 78.5509 103.166 81.8623 105.85 85.5869C107.987 88.5843 110.933 91.85 114.559 95.279C120.086 100.524 125.589 104.624 126.716 105.436C126.77 105.415 126.826 105.371 126.88 105.351C127.175 105.275 127.513 105.416 127.631 105.71C127.702 105.881 127.668 106.046 127.556 106.158C127.633 106.21 127.683 106.285 127.76 106.338C127.837 106.39 127.887 106.465 127.963 106.517C128.09 106.645 128.218 106.748 128.371 106.878C128.448 106.931 128.498 106.982 128.574 107.058C128.6 107.083 128.65 107.11 128.676 107.135C128.701 107.162 128.753 107.188 128.779 107.214C129.06 107.423 129.341 107.656 129.624 107.841C129.777 107.947 129.932 108.028 130.061 108.108C130.139 108.137 130.216 108.19 130.294 108.218C130.373 108.248 130.45 108.276 130.528 108.305C130.685 108.363 130.815 108.395 130.974 108.406C131.053 108.411 131.106 108.414 131.187 108.396C131.213 108.398 131.267 108.377 131.293 108.379C131.321 108.357 131.347 108.359 131.401 108.338C131.401 108.338 131.428 108.34 131.429 108.317L131.456 108.294L131.485 108.273L131.512 108.25L131.54 108.229L131.567 108.207L131.622 108.163C131.677 108.119 131.734 108.05 131.789 108.006C131.844 107.939 131.873 107.893 131.903 107.824L131.906 107.752C131.906 107.752 131.906 107.752 131.907 107.729L131.908 107.705L131.909 107.681L131.912 107.634L131.913 107.611C131.916 107.539 131.919 107.468 131.923 107.396C131.9 107.324 131.904 107.253 131.854 107.177C131.832 107.105 131.782 107.029 131.758 106.957C131.76 106.934 131.734 106.932 131.735 106.908C131.736 106.884 131.709 106.883 131.71 106.858C131.685 106.833 131.66 106.784 131.636 106.758C131.535 106.633 131.409 106.506 131.283 106.378C131.257 106.353 131.233 106.327 131.207 106.302C131.205 106.325 131.233 106.327 131.231 106.351C131.23 106.374 131.255 106.4 131.254 106.423C131.253 106.448 131.252 106.471 131.225 106.494C131.226 106.469 131.227 106.446 131.201 106.42C131.202 106.397 131.177 106.371 131.178 106.347C131.154 106.298 131.129 106.273 131.105 106.224C131.08 106.175 131.056 106.149 131.005 106.097C130.979 106.072 130.955 106.023 130.904 105.995L130.878 105.97C130.957 105.999 131.06 106.053 131.138 106.083C131.214 106.136 131.292 106.188 131.369 106.241C131.445 106.294 131.523 106.346 131.599 106.423C131.625 106.448 131.675 106.475 131.7 106.525C131.725 106.55 131.725 106.55 131.751 106.576L131.775 106.601L131.801 106.627C131.877 106.703 131.927 106.754 131.977 106.828L132.002 106.854L132.028 106.879C132.052 106.905 132.051 106.928 132.078 106.93C132.078 106.93 132.078 106.93 132.077 106.955L132.076 106.978L132.101 107.003C132.101 107.003 132.1 107.027 132.127 107.029C132.127 107.029 132.126 107.052 132.152 107.054C132.201 107.129 132.223 107.226 132.245 107.323C132.266 107.419 132.262 107.514 132.257 107.609C132.253 107.704 132.223 107.797 132.191 107.891C132.161 107.983 132.103 108.075 132.047 108.143C131.99 108.21 131.933 108.302 131.851 108.368L131.795 108.412L131.768 108.434L131.74 108.456L131.713 108.479L131.685 108.5L131.658 108.523L131.63 108.544C131.548 108.61 131.438 108.675 131.33 108.715C131.223 108.756 131.116 108.772 130.983 108.788C130.876 108.804 130.743 108.796 130.638 108.789C130.586 108.785 130.533 108.782 130.481 108.755C130.428 108.752 130.376 108.724 130.323 108.72C130.27 108.717 130.218 108.69 130.168 108.662C130.116 108.636 130.063 108.632 130.011 108.604C129.959 108.578 129.907 108.55 129.881 108.548C129.83 108.522 129.804 108.495 129.752 108.469C129.57 108.386 129.416 108.28 129.263 108.175C129.109 108.069 128.955 107.941 128.802 107.835C128.725 107.782 128.649 107.706 128.598 107.655C128.522 107.602 128.472 107.527 128.394 107.474C128.37 107.449 128.318 107.422 128.294 107.372C128.268 107.347 128.218 107.296 128.193 107.271C128.116 107.194 128.067 107.143 127.99 107.067C127.864 106.94 127.738 106.812 127.612 106.662C127.563 106.586 127.485 106.534 127.436 106.459C127.386 106.384 127.31 106.332 127.26 106.257C127.26 106.257 127.234 106.255 127.233 106.28C126.938 106.355 126.6 106.214 126.482 105.921C126.436 105.775 126.444 105.609 126.528 105.494C125.35 104.632 119.873 100.557 114.346 95.3127C110.72 91.8593 107.774 88.5947 105.612 85.5946C102.902 81.845 101.445 78.4861 101.209 75.6366C100.993 72.9315 101.95 70.6607 103.996 68.8651C109.251 64.2562 123.773 64.8031 139.142 65.4055C156.284 66.0531 174.034 66.7406 180.827 60.4215C182.989 58.4206 183.906 55.8608 183.636 52.6274C181.749 29.9025 164.314 20.9245 159.013 18.7195L158.961 18.6917C157.871 18.2396 156.804 17.8123 155.738 17.3852L155.147 19.2272L154.284 18.9809L154.906 17.0443C141.688 11.8914 129.136 8.9247 117.353 8.15234C115.185 8.03467 113.015 7.98779 110.84 8.01171L110.851 11.1316L109.951 11.1203L109.939 8.02365C107.34 8.06745 104.736 8.23072 102.179 8.46817C99.6502 8.73071 97.1165 9.06507 94.6301 9.52126C88.3684 10.7775 82.3636 12.7896 76.6414 15.5348C73.5488 17.022 70.6341 18.6896 67.8446 20.5063L69.3674 22.4881L68.439 23.0464L66.941 21.114C54.6491 29.3829 45.1269 40.6907 37.8748 52.1938L39.2537 52.737L38.839 53.663L37.3294 53.0636C32.6216 60.6623 28.8928 68.3007 26.0214 75.1853C22.9122 82.6025 20.5071 89.7097 18.7038 95.8543L21.0188 96.7684L20.6041 97.6944L18.4457 96.8383C16.0968 104.972 14.814 111.342 14.2446 114.377C14.2717 114.379 14.2975 114.381 14.3246 114.382C17.177 114.569 19.4028 116.811 19.2808 119.375C19.2435 120.159 18.9967 120.88 18.5697 121.519L23.26 126.543L22.4083 127.177L17.8688 122.307C16.8705 123.242 15.4408 123.768 13.8829 123.665C12.7461 123.591 11.6794 123.187 10.8604 122.562C10.6766 123.646 10.4929 124.729 10.335 125.814C10.22 126.569 10.1038 127.324 9.98885 128.078L6.09755 157.5L1.50378 156.772L6.96182 127.641ZM126.909 105.853C126.931 105.926 127.009 105.979 127.088 105.984C127.114 105.986 127.114 105.986 127.141 105.987C127.195 105.968 127.25 105.923 127.252 105.876C127.254 105.852 127.256 105.804 127.257 105.781C127.234 105.684 127.104 105.652 127.024 105.67C126.944 105.665 126.885 105.78 126.909 105.853ZM155.206 16.3261C155.178 16.3243 155.18 16.2999 155.154 16.2983C153.879 15.8108 152.576 15.3204 151.273 14.8776C148.666 13.9677 146.002 13.1506 143.333 12.4275C138.049 10.9859 132.668 9.87088 127.244 9.13471C136.134 10.5741 145.417 13.1833 155.018 16.9086L155.206 16.3261ZM76.5942 15.4118C79.7949 13.8595 83.1162 12.5526 86.5061 11.4887C86.398 11.5294 86.2921 11.5468 86.1839 11.5875C83.5769 12.3453 81.0184 13.2018 78.5331 14.2052C74.5899 15.7576 70.8168 17.6297 67.2453 19.7291L67.7702 20.4071C70.6162 18.5209 73.5567 16.8561 76.5942 15.4118ZM45.0559 41.6381C51.6305 33.233 58.9293 26.3046 66.8678 20.9905L66.3181 20.2875C65.6635 20.673 65.0349 21.0845 64.405 21.4959C60.0032 24.351 55.9009 27.583 52.1546 31.1246C50.2685 32.8818 48.4849 34.7179 46.7779 36.6311C45.0697 38.5431 43.4405 40.4847 41.8867 42.5022C40.3341 44.5199 38.8579 46.5669 37.4596 48.6657C36.8613 49.5553 36.2878 50.4709 35.7143 51.3853L37.7431 52.1852C40.0418 48.43 42.4891 44.8997 45.0559 41.6381ZM25.8625 75.1749C29.2129 67.1544 33.0092 59.7589 37.1458 53.0282L35.117 52.2283C34.5423 53.1671 33.9676 54.106 33.4201 55.0454L32.4938 56.6758L32.0306 57.5032L31.5934 58.3323L30.693 59.9877L29.8186 61.6692C29.6721 61.9447 29.5268 62.2215 29.3814 62.4971L28.9701 63.3524L28.1475 65.0361L27.3508 66.7471L26.9383 67.6011L26.5541 68.457C22.6426 77.131 19.5399 86.0977 16.986 95.2179L18.572 95.8457C20.3494 89.6749 22.7533 82.5921 25.8625 75.1749ZM14.0576 114.412C14.6258 111.377 15.911 104.983 18.2609 96.8017L16.6748 96.174C16.6411 96.3383 16.5813 96.4775 16.5463 96.6416C14.912 102.584 13.5402 108.591 12.3238 114.656C12.8871 114.502 13.4481 114.42 14.0576 114.412Z" fill="white"/>
</svg>
