<svg width="29" height="30" viewBox="0 0 29 30" fill="none" xmlns="http://www.w3.org/2000/svg">
<path d="M14.15 0C21.9651 0 28.3 6.51851 28.3 14.56C28.3 22.6015 21.9651 29.12 14.15 29.12C11.6494 29.1244 9.19268 28.4434 7.03257 27.1471L0.00568187 29.12L1.91876 21.8866C0.657938 19.6632 -0.0043605 17.1342 2.16052e-05 14.56C2.16052e-05 6.51851 6.33497 0 14.15 0ZM9.32769 7.71679L9.04469 7.72844C8.86172 7.74141 8.68295 7.79087 8.51831 7.87404C8.36489 7.9636 8.22479 8.0754 8.10231 8.20601C7.93251 8.37054 7.83629 8.51323 7.73299 8.65155C7.20961 9.35174 6.92782 10.2114 6.9321 11.0947C6.93493 11.8082 7.11605 12.5027 7.39905 13.152C7.97779 14.4653 8.93008 15.8558 10.1866 17.1444C10.4894 17.4545 10.7866 17.7661 11.1063 18.0558C12.6677 19.4702 14.5282 20.4902 16.5399 21.0348L17.3437 21.1615C17.6054 21.176 17.8672 21.1557 18.1304 21.1426C18.5424 21.1202 18.9447 21.0054 19.3091 20.8062C19.4942 20.7077 19.6751 20.6008 19.851 20.4859C19.851 20.4859 19.9109 20.4442 20.0279 20.3549C20.2189 20.2093 20.3364 20.1059 20.4949 19.9355C20.6137 19.8094 20.7128 19.6628 20.792 19.4958C20.9024 19.2585 21.0128 18.8057 21.058 18.4286C21.092 18.1403 21.0821 17.983 21.0778 17.8855C21.0722 17.7297 20.9463 17.5681 20.809 17.4997L19.9855 17.1196C19.9855 17.1196 18.7544 16.5678 18.0016 16.2155C17.9228 16.1802 17.8384 16.1599 17.7526 16.1558C17.6558 16.1453 17.5579 16.1565 17.4656 16.1884C17.3733 16.2203 17.2888 16.2722 17.2177 16.3407C17.2107 16.3378 17.1158 16.4208 16.0928 17.6962C16.0341 17.7774 15.9532 17.8388 15.8605 17.8725C15.7677 17.9062 15.6673 17.9107 15.5721 17.8855C15.4799 17.8602 15.3895 17.8281 15.3018 17.7894C15.1264 17.7137 15.0655 17.6846 14.9452 17.6321C14.1329 17.268 13.3809 16.7753 12.7166 16.1718C12.5383 16.0116 12.3728 15.8369 12.203 15.668C11.6463 15.1194 11.1612 14.4988 10.7597 13.8218L10.6762 13.6835C10.6171 13.59 10.5687 13.4898 10.5319 13.385C10.4781 13.171 10.6182 12.9992 10.6182 12.9992C10.6182 12.9992 10.962 12.6119 11.1219 12.4022C11.2776 12.1984 11.4092 12.0003 11.4941 11.8591C11.661 11.5825 11.7134 11.2986 11.6257 11.0787C11.2295 10.0828 10.82 9.09223 10.3974 8.107C10.3139 7.9119 10.0663 7.77212 9.84134 7.74446C9.76493 7.73475 9.68852 7.72699 9.61211 7.72116C9.42212 7.70995 9.2316 7.71189 9.04186 7.72699L9.32769 7.71679Z" fill="white"/>
</svg>
